PathFileType	3	(X/Y/Z)	D:\minhoCalibration\240510\subject3_KPNP\preferred\preferred14.trc
DataRate	CameraRate	NumFrames	NumMarkers	Units	OrigDataRate	OrigDataStartFrame	OrigNumFrames
200.0	200.0	33	10	mm	200.0	247	142	
Frame#	Time	Left_Ankle_Outer1			Left_Ankle_Inner1			Left_Knee_Outer1			Left_Knee_Inner1			Left_Wrist1			Right_Wrist1			Right_Knee_Inner1			Right_Knee_Outer1			Right_Ankle_Inner1			Right_Ankle_Outer1			
		X1	Y1	Z1	X2	Y2	Z2	X3	Y3	Z3	X4	Y4	Z4	X5	Y5	Z5	X6	Y6	Z6	X7	Y7	Z7	X8	Y8	Z8	X9	Y9	Z9	X10	Y10	Z10	
247	1.225	-327.77292	134.48447	-484.63632	-381.75629	153.67332	-464.46262	-182.34587	541.98981	-431.04929	-253.74559	557.6991	-357.66653	-181.96007	919.57672	-673.45575	-405.15414	1116.4711	-432.16681	-361.33307	905.89069	-50.186417	-388.45093	1023.3676	-60.212822	-774.94635	787.10492	-85.18309	-806.64001	877.47662	-40.536316
248	1.23	-328.40762	134.23428	-484.68732	-382.19766	153.39723	-464.45093	-182.39841	541.30945	-430.81009	-253.56749	557.32275	-357.49384	-185.98668	917.01068	-676.01709	-401.27737	1119.5264	-432.85718	-350.30292	919.37103	-49.345253	-372.91016	1036.3527	-62.818707	-767.7821	807.72754	-37.026581	-793.30133	900.47821	3.4893909
249	1.235	-328.62408	134.30241	-484.71747	-382.65271	153.06378	-464.45514	-182.29898	540.74237	-430.50436	-253.44295	556.87811	-356.81076	-190.31673	913.979	-678.09656	-397.68649	1122.4841	-433.44931	-340.82275	932.11792	-49.385551	-357.5296	1048.024	-67.511887	-757.45154	828.71667	13.832513	-776.95502	923.87854	48.937099
250	1.24	-329.37103	133.81136	-484.7709	-383.11966	152.85651	-464.38763	-182.02483	540.26746	-429.97696	-252.73163	556.8772	-356.02325	-193.85606	911.07617	-680.07068	-394.05386	1124.7845	-434.18512	-332.92148	944.13196	-50.074509	-345.19785	1057.8107	-73.050888	-740.35486	849.56982	66.966042	-756.7652	948.57129	94.480453
251	1.245	-329.95056	133.63136	-484.7265	-383.47354	152.63365	-464.44974	-181.95421	539.49884	-429.40488	-253.08484	555.65192	-356.64322	-198.35097	907.63464	-681.2287	-390.6069	1126.7225	-435.17511	-327.09409	955.30341	-51.02927	-335.70148	1065.6749	-79.192863	-719.35626	873.50214	117.93302	-731.43427	973.76245	138.55376
252	1.25	-330.38715	133.52321	-484.69116	-383.91638	152.38892	-464.29147	-181.63776	539.01349	-428.87735	-252.57524	555.26837	-355.95331	-202.50485	903.80774	-682.34119	-386.96994	1128.9515	-436.42712	-323.13776	965.93091	-52.324234	-329.63809	1071.6842	-85.283371	-693.43475	898.81189	168.67587	-702.30157	1000.6768	181.43364
253	1.255	-330.77847	133.39478	-484.8551	-384.39835	152.14403	-464.22583	-181.26625	538.44995	-428.42874	-251.89278	554.77338	-355.27011	-206.4633	900.07391	-683.06165	-383.6539	1130.41	-438.21426	-321.0372	975.86182	-53.978809	-326.5267	1076.8254	-90.864388	-662.82922	925.42877	209.63454	-668.61566	1028.5787	221.39447
254	1.26	-331.638	132.97418	-484.99655	-385.03644	151.92157	-464.10855	-180.9539	537.77252	-428.06171	-251.18127	554.27295	-354.63522	-210.23088	896.45447	-683.50342	-380.73843	1131.9423	-439.9595	-320.78592	984.82086	-55.88995	-326.20856	1080.8538	-95.69059	-626.20203	953.14832	255.04247	-630.08807	1056.2209	256.99744
255	1.265	-332.77817	132.69597	-484.89966	-385.58337	151.58319	-463.84824	-180.50523	537.08002	-428.06339	-250.54907	554.05603	-353.21432	-213.7686	893.14417	-683.6037	-377.85446	1132.5698	-442.07675	-322.54471	992.60364	-57.45607	-328.02682	1084.5363	-99.279144	-585.18243	980.80383	294.55237	-587.81311	1083.327	286.97464
256	1.27	-333.77924	132.34348	-485.28024	-386.21545	151.30278	-463.78433	-179.97824	536.3941	-428.30713	-249.52452	553.6532	-352.11133	-217.50029	890.05371	-683.17877	-375.34561	1133.5052	-443.95667	-325.20441	998.81122	-58.099979	-331.59158	1087.5305	-101.73913	-536.60651	1005.6953	319.49298	-542.93768	1109.9104	310.31873
257	1.275	-334.7012	132.11243	-485.79694	-387.01248	151.07234	-463.81674	-179.51747	535.60773	-428.78012	-248.01979	552.70233	-352.1897	-221.00363	887.48126	-682.30304	-373.20709	1134.6121	-445.50211	-328.14566	1004.1813	-58.269966	-337.5676	1090.5417	-103.56755	-483.21045	1032.7371	342.56735	-496.58578	1133.1903	324.84567
258	1.28	-336.3158	131.3188	-486.36768	-387.96179	150.70366	-463.84647	-179.16647	534.57037	-429.56561	-246.65068	552.21027	-351.41251	-224.80031	885.35284	-680.6601	-371.52899	1136.3322	-446.26617	-330.52524	1008.608	-58.652756	-344.67505	1095.2458	-105.46839	-423.99393	1052.8893	346.16959	-449.6218	1152.2684	331.82654
259	1.285	-337.30914	131.03284	-487.07333	-388.76956	150.46817	-463.98163	-179.10684	533.53943	-430.41376	-245.02052	551.01361	-350.67465	-227.95813	883.84906	-678.40851	-371.11011	1138.2021	-446.0914	-331.07919	1011.8093	-59.244926	-353.31781	1102.7192	-107.36266	-381.16006	1075.4186	350.92731	-409.33298	1173.1995	326.75516
260	1.29	-339.89151	129.69684	-486.68106	-389.64224	150.02391	-464.16922	-179.29541	532.52509	-431.24118	-243.26393	550.04474	-349.61322	-230.88255	883.01233	-675.3208	-371.35349	1140.3535	-445.33182	-330.05222	1013.8668	-59.957512	-361.86478	1110.2175	-109.19877	-364.85703	1087.2063	346.21088	-384.55234	1187.5359	318.9769
261	1.295	-339.38159	130.08272	-488.44827	-390.29703	149.48404	-464.55875	-179.90318	531.36902	-431.75955	-241.27826	548.60181	-349.17258	-233.28053	882.67792	-671.38367	-372.17633	1141.8081	-443.93655	-325.77362	1015.7762	-60.064201	-369.51251	1115.6842	-110.42467	-362.95206	1098.2096	350.34891	-373.06073	1195.2952	315.21576
262	1.3	-339.79703	129.53482	-489.23102	-390.66254	148.83441	-465.32599	-180.74901	530.43567	-431.8382	-239.81201	547.02197	-347.68976	-234.80402	882.77618	-666.80316	-374.13458	1141.9818	-442.07559	-315.88214	1021.7761	-61.053478	-373.73605	1118.4762	-110.85272	-366.1235	1096.3662	348.31717	-372.53894	1197.6627	318.50504
263	1.305	-340.71667	128.46921	-489.04987	-390.61359	148.16989	-465.97559	-181.63341	529.70038	-431.46716	-239.04561	545.42358	-345.83905	-235.58548	882.88397	-661.77386	-376.64041	1141.5004	-439.82346	-303.49579	1031.3037	-62.534733	-368.3931	1122.0168	-111.01983	-366.18588	1089.5485	344.96521	-374.31326	1193.9856	322.30127
264	1.31	-339.07669	128.27678	-490.25266	-390.20844	147.47444	-466.79352	-183.21844	529.48376	-430.05746	-239.03226	543.81818	-343.74402	-235.9308	883.00946	-656.41278	-380.73996	1140.0736	-437.31985	-292.11798	1040.5291	-64.365341	-356.14258	1125.7484	-109.87414	-365.6312	1082.0735	344.48288	-377.91754	1185.748	324.66556
265	1.315	-337.82953	127.93943	-490.44427	-389.45065	146.67203	-467.70911	-185.06418	529.52124	-427.85855	-240.40868	542.72858	-341.32004	-235.6821	883.11316	-651.1521	-385.73587	1138.6384	-433.79044	-284.0014	1048.1447	-67.620209	-341.49911	1127.2529	-108.46113	-365.23712	1076.1537	345.31171	-381.56454	1178.7432	328.41208
266	1.32	-336.50845	127.54753	-490.2843	-388.58954	146.02275	-468.8656	-186.97318	529.70325	-424.86819	-243.16415	542.34528	-338.72021	-235.31664	883.34973	-646.38226	-391.38095	1137.2305	-430.85907	-282.55701	1052.158	-69.351433	-326.82822	1125.921	-109.0741	-363.87952	1070.8622	345.69662	-383.76404	1172.6211	329.91528
267	1.325	-335.31494	127.01498	-490.28836	-387.64035	144.9574	-469.92688	-188.85152	530.19952	-420.8588	-247.62469	542.60968	-335.82425	-234.74258	883.70978	-642.22906	-396.55261	1134.9727	-427.55325	-286.26227	1049.8672	-66.794861	-317.69647	1122.0149	-112.46917	-359.30136	1064.2867	344.90714	-383.2294	1166.6155	330.53558
268	1.33	-333.95029	126.51204	-490.44019	-387.03891	144.37875	-471.43402	-190.66887	530.80597	-416.07498	-252.67282	543.07721	-333.36014	-234.01762	884.00232	-638.7796	-402.17438	1132.4951	-424.4686	-289.66492	1043.9883	-64.738289	-318.07138	1116.0176	-114.85749	-354.63132	1058.5752	344.80057	-381.71509	1160.6912	332.89618
269	1.335	-332.96658	126.12737	-490.30231	-386.5011	143.53282	-472.45325	-192.5345	531.36536	-410.78281	-258.50073	543.69733	-330.90146	-232.92038	884.32916	-635.71741	-407.88943	1130.4481	-421.89417	-292.42984	1037.715	-64.155525	-323.06308	1115.2223	-114.95638	-350.54803	1053.7151	346.10266	-379.66061	1154.5264	335.78638
270	1.34	-332.09784	125.67026	-490.30582	-385.86963	142.74179	-473.40219	-194.37054	532.28259	-405.2738	-264.50339	544.22949	-328.71857	-231.37204	884.64288	-632.90869	-413.42575	1128.9738	-420.23947	-294.90109	1032.3752	-63.544041	-330.83679	1116.2416	-112.57211	-346.45627	1049.301	348.93192	-377.73602	1149.528	339.1347
271	1.345	-331.13412	125.49709	-490.15781	-385.3949	142.28601	-474.14563	-196.39987	532.9848	-399.97043	-270.1087	544.62439	-327.24042	-229.55516	884.64618	-630.133	-418.7717	1127.4983	-419.27188	-297.49695	1027.8667	-62.369194	-340.80231	1115.2766	-108.62294	-341.68332	1045.0238	352.19611	-375.78586	1144.3682	341.50253
272	1.35	-330.56747	125.36557	-489.78656	-384.95129	141.93103	-474.77985	-198.65077	533.74762	-394.8002	-275.685	545.13092	-325.6315	-227.40015	884.82245	-627.23438	-422.74838	1126.3969	-418.69034	-300.29446	1023.5511	-61.065914	-351.42834	1111.4745	-103.75806	-335.41467	1040.4379	354.42413	-374.22745	1137.7233	343.50797
273	1.355	-329.48636	125.57513	-489.77567	-384.91144	141.61816	-475.17554	-200.6248	534.42169	-390.151	-280.7522	545.56671	-324.90079	-225.42688	884.7851	-624.36639	-425.69659	1125.9135	-418.76086	-303.26324	1019.2481	-60.070217	-362.62494	1105.0842	-97.891289	-327.19891	1037.2059	357.6076	-373.09634	1130.1847	345.23599
274	1.36	-329.1445	125.67201	-489.6004	-384.89294	141.34639	-475.67371	-202.62602	534.78821	-385.92905	-285.72971	545.85297	-324.45322	-223.26843	884.88513	-621.65692	-428.8028	1124.9486	-419.25116	-306.32315	1014.757	-59.321735	-372.50507	1096.7002	-93.289909	-320.68832	1033.5148	360.06192	-373.24707	1121.6936	347.15427
275	1.365	-328.71503	125.90194	-489.52539	-385.05566	141.07176	-476.18527	-204.57254	535.20038	-382.32266	-290.2525	546.02264	-324.46481	-220.85121	885.22321	-619.49451	-431.34277	1124.2513	-420.28473	-309.68774	1009.8073	-58.797066	-380.50995	1088.0848	-90.676765	-312.06335	1025.1665	349.86496	-373.3291	1112.2402	349.1626
276	1.37	-328.2627	126.14108	-489.5878	-385.28253	140.75146	-476.78818	-206.42027	535.38806	-379.6246	-294.30643	545.83618	-325.17993	-219.19106	885.58026	-617.12567	-434.43549	1123.2249	-421.2955	-313.45358	1004.4762	-58.386353	-386.39877	1081.052	-89.31356	-309.76337	1020.5877	362.64313	-373.71454	1102.2	351.05524
277	1.375	-330.68695	124.25876	-489.3429	-385.52332	140.35448	-477.45255	-208.21761	535.4624	-377.92752	-297.64755	545.69043	-325.73407	-217.75153	886.1073	-614.90961	-436.94925	1122.3595	-422.48584	-316.85001	999.0318	-58.381191	-389.84982	1076.0479	-89.088516	-307.22089	1012.4712	361.80319	-374.29156	1091.2861	352.69852
278	1.38	-331.02798	123.87737	-489.40268	-385.79422	139.76894	-478.11786	-209.72292	535.35583	-377.16785	-300.80487	545.61243	-326.56305	-216.45317	886.83911	-612.92725	-439.50916	1120.9783	-423.4696	-319.1803	994.15167	-58.997478	-392.71252	1071.85	-88.664101	-304.54611	1002.7123	361.14334	-375.45367	1079.3142	354.13605
279	1.385	-330.41605	123.86497	-490.1987	-386.10928	139.34604	-478.90817	-210.95387	535.26953	-377.26404	-302.61304	545.24023	-327.47226	-215.17709	887.79449	-611.02234	-442.66367	1119.587	-423.88657	-323.92575	989.09918	-57.069134	-395.56339	1066.6038	-87.815155	-303.04803	993.10919	360.41599	-377.14697	1065.7615	355.1879
